<svg xmlns="http://www.w3.org/2000/svg" width="32" height="32" viewBox="0 0 32 32" fill="none">
  <!-- White outline filter/stroke for high contrast on any background -->
  <g filter="drop-shadow(0px 2px 3px rgba(60, 35, 15, 0.35))">
    <!-- Outer stroke for visibility on dark/light surfaces -->
    <!-- Palm Pad -->
    <path d="M11 18.5 C7.5 19 6 22 6 24.5 C6 27.5 9 29.5 15 29.5 C21 29.5 24 27.5 24 24.5 C24 22 22.5 19 19 18.5 C16.5 17 13.5 17 11 18.5 Z" 
          fill="#8c5028" stroke="#ffffff" stroke-width="1.75" stroke-linejoin="round"/>
    
    <!-- Toe 1 (Top Left - Pointer hotspot at 8, 4) -->
    <ellipse cx="8.5" cy="11.5" rx="2.6" ry="3.8" transform="rotate(-20 8.5 11.5)" 
             fill="#8c5028" stroke="#ffffff" stroke-width="1.75"/>
             
    <!-- Toe 2 (Top Center-Left) -->
    <ellipse cx="14" cy="8.5" rx="2.7" ry="4" transform="rotate(-4 14 8.5)" 
             fill="#9a5a30" stroke="#ffffff" stroke-width="1.75"/>
             
    <!-- Toe 3 (Top Center-Right) -->
    <ellipse cx="19.5" cy="10" rx="2.6" ry="3.8" transform="rotate(12 19.5 10)" 
             fill="#8c5028" stroke="#ffffff" stroke-width="1.75"/>
             
    <!-- Toe 4 (Far Right) -->
    <ellipse cx="24" cy="14" rx="2.4" ry="3.4" transform="rotate(26 24 14)" 
             fill="#7e4620" stroke="#ffffff" stroke-width="1.75"/>

    <!-- Subtle Inner Highlights for depth -->
    <ellipse cx="15" cy="24" rx="4.5" ry="2.2" fill="#ab6a3e" opacity="0.5"/>
    <ellipse cx="14" cy="8" rx="1.2" ry="2" fill="#c48052" opacity="0.6"/>
  </g>
</svg>
